<svg width="17" height="15" viewBox="0 0 17 15" fill="none" xmlns="http://www.w3.org/2000/svg">
<path d="M8.49992 0C7.49056 0 6.49107 0.19881 5.55854 0.585077C4.62601 0.971345 3.77869 1.53751 3.06496 2.25124C1.62351 3.69268 0.813721 5.6477 0.813721 7.6862C0.813721 11.0835 3.01966 13.9658 6.07108 14.9881C6.45539 15.0496 6.57837 14.8113 6.57837 14.6038C6.57837 14.427 6.57837 13.9428 6.57837 13.3048C4.44929 13.766 3.99581 12.2749 3.99581 12.2749C3.64224 11.3833 3.14264 11.145 3.14264 11.145C2.4432 10.6684 3.19644 10.6838 3.19644 10.6838C3.96506 10.7376 4.37243 11.4755 4.37243 11.4755C5.04113 12.6438 6.171 12.2979 6.60912 12.1135C6.67829 11.6139 6.87813 11.2757 7.09335 11.0835C5.38701 10.8913 3.59613 10.2303 3.59613 7.30189C3.59613 6.44872 3.8882 5.76465 4.3878 5.21893C4.31094 5.02678 4.04193 4.22741 4.46467 3.18977C4.46467 3.18977 5.11031 2.98225 6.57837 3.97377C7.18558 3.80467 7.8466 3.72012 8.49992 3.72012C9.15325 3.72012 9.81426 3.80467 10.4215 3.97377C11.8895 2.98225 12.5352 3.18977 12.5352 3.18977C12.9579 4.22741 12.6889 5.02678 12.612 5.21893C13.1116 5.76465 13.4037 6.44872 13.4037 7.30189C13.4037 10.238 11.6051 10.8837 9.89113 11.0758C10.1678 11.3141 10.4215 11.7829 10.4215 12.4978V14.6038C10.4215 14.8113 10.5445 15.0573 10.9364 14.9881C13.9879 13.9581 16.1861 11.0835 16.1861 7.6862C16.1861 6.67684 15.9873 5.67735 15.601 4.74482C15.2148 3.81229 14.6486 2.96497 13.9349 2.25124C13.2212 1.53751 12.3738 0.971345 11.4413 0.585077C10.5088 0.19881 9.50929 0 8.49992 0Z" fill="#F2F2F2"/>
</svg>
