<svg width="18" height="11" viewBox="0 0 18 11" fill="none" xmlns="http://www.w3.org/2000/svg">
<path fill-rule="evenodd" clip-rule="evenodd" d="M17.178 1.17714C17.2971 0.786814 17.178 0.5 16.6108 0.5H14.7354C14.2585 0.5 14.0387 0.747764 13.9195 1.02097C13.9195 1.02097 12.9657 3.30434 11.6146 4.7875C11.1775 5.21686 10.9788 5.3535 10.7404 5.3535C10.6212 5.3535 10.4423 5.21686 10.4423 4.82657V1.17714C10.4423 0.70875 10.3103 0.5 9.91282 0.5H6.9657C6.66771 0.5 6.48849 0.717386 6.48849 0.923414C6.48849 1.36744 7.164 1.46984 7.23362 2.71886V5.43157C7.23362 6.02629 7.12427 6.13414 6.88584 6.13414C6.25006 6.13414 4.70352 3.84059 3.78627 1.21615C3.60652 0.70605 3.42622 0.5 2.94692 0.5H1.07148C0.535641 0.5 0.428467 0.747764 0.428467 1.02097C0.428467 1.50889 1.06428 3.92885 3.38892 7.12943C4.93867 9.31514 7.12217 10.5 9.10904 10.5C10.3012 10.5 10.4487 10.2369 10.4487 9.78357V8.13157C10.4487 7.60529 10.5616 7.50021 10.9391 7.50021C11.2173 7.50021 11.6941 7.63686 12.8068 8.69071C14.0784 9.93971 14.288 10.5 15.0033 10.5H16.8788C17.4145 10.5 17.6825 10.2369 17.5279 9.7175C17.3588 9.19993 16.7517 8.449 15.9461 7.55879C15.509 7.05136 14.8533 6.50493 14.6545 6.23164C14.3764 5.88043 14.4559 5.72429 14.6545 5.41207C14.6545 5.41207 16.9395 2.25048 17.178 1.17714V1.17714Z" fill="#F2F2F2"/>
</svg>
