<svg width="16" height="11" viewBox="0 0 16 11" fill="none" xmlns="http://www.w3.org/2000/svg">
<path d="M14.8563 2.0424C14.6863 1.43895 14.2157 0.965681 13.6096 0.798381C12.4935 0.500014 8.00683 0.500014 8.00683 0.500014C8.00683 0.500014 3.52865 0.492857 2.40094 0.798381C1.79794 0.966129 1.32512 1.43895 1.15692 2.0424C0.945337 3.18621 0.840215 4.34389 0.845136 5.50694C0.842899 6.66239 0.947574 7.81828 1.15692 8.95493C1.32512 9.55838 1.79794 10.0316 2.40094 10.2016C3.51702 10.5 8.00683 10.5 8.00683 10.5C8.00683 10.5 12.4823 10.5 13.6096 10.2016C14.2157 10.0316 14.6863 9.55883 14.8563 8.95493C15.0616 7.81828 15.1618 6.66239 15.1547 5.50694C15.1618 4.34389 15.0639 3.18621 14.8563 2.0424V2.0424ZM6.5736 7.64829V3.35619L10.3083 5.50694L6.5736 7.64829Z" fill="#F2F2F2"/>
</svg>
